Coordinates
version=1
nRows=15
nColumns=42
inDegrees=yes

Units are S.I. units (second, meters, Newtons, ...)
If the header above contains a line with 'inDegrees', this indicates whether rotational values are in degrees (yes) or radians (no).

endheader
time	pelvis_tilt	pelvis_list	pelvis_rotation	pelvis_tx	pelvis_ty	pelvis_tz	hip_flexion_r	hip_adduction_r	hip_rotation_r	knee_angle_r	knee_adduction_r	knee_angle_r_beta	ankle_angle_r	subtalar_angle_r	mtp_angle_r	hip_flexion_l	hip_adduction_l	hip_rotation_l	knee_angle_l	knee_adduction_l	knee_angle_l_beta	ankle_angle_l	subtalar_angle_l	mtp_angle_l	lumbar_extension	lumbar_bending	lumbar_rotation	arm_flex_r	arm_add_r	arm_rot_r	elbow_flex_r	pro_sup_r	wrist_flex_r	wrist_dev_r	arm_flex_l	arm_add_l	arm_rot_l	elbow_flex_l	pro_sup_l	wrist_flex_l	wrist_dev_l
      0.60000000	     19.92157666	      2.33155051	      6.74799781	     -0.47290880	      0.96675941	     -0.13896787	      8.54509693	     -0.55758253	    -21.01889682	     35.69625446	     -6.81293474	      0.62301717	      6.57541064	      5.70572806	     -8.18142915	    -28.71906304	     -2.29751023	     -8.90018859	     44.86505242	     -7.11073221	      0.78304288	     -5.64108273	     17.87445666	     -8.18142915	    -39.61919565	      4.94214436	      1.48385173	     -3.42150710	    -16.25002518	    -13.46636479	     58.86609375	     90.00000001	      0.00000000	      0.00000000	      4.91516803	    -19.56689704	      2.45433799	     71.34126342	     90.00000001	      0.00000000	      0.00000000
      0.61000000	     20.46814297	      2.42213507	      6.62773276	     -0.45833988	      0.96987603	     -0.13797813	      6.96601367	     -0.45015236	    -22.00118751	     35.61390706	     -7.32974291	      0.62157994	      7.70449928	      7.67183608	     -8.14275853	    -28.07856283	     -1.98096095	     -5.79125794	     47.76948626	     -5.83277893	      0.83373482	     -7.37978479	     11.99828399	     -8.14275853	    -40.29752850	      4.89835217	      1.76788498	     -3.07157710	    -16.37995518	    -13.26767233	     58.86831685	     90.00000001	      0.00000000	      0.00000000	      4.36971632	    -19.32508557	      2.12254879	     70.92207376	     90.00000001	      0.00000000	      0.00000000
      0.62000000	     20.66968488	      2.31125281	      6.46591656	     -0.44400925	      0.97228921	     -0.13676209	      5.76521193	     -0.16424880	    -22.79795478	     35.47375101	     -7.69276491	      0.61913375	      9.00807859	      9.19252536	     -8.11137685	    -26.72140006	     -1.90161362	     -4.40242114	     50.88804245	     -5.49716653	      0.88816389	     -8.17007318	      9.23336120	     -8.11137685	    -40.59845218	      4.95658907	      2.19685566	     -2.74477617	    -16.50259447	    -13.11268243	     58.96591436	     90.00000001	      0.00000000	      0.00000000	      3.83465005	    -19.07506082	      1.88152908	     70.38004154	     90.00000001	      0.00000000	      0.00000000
      0.63000000	     20.78151012	      2.34241089	      6.34304732	     -0.43006472	      0.97472006	     -0.13561249	      4.61056481	     -0.10133127	    -23.69157930	     35.26234199	     -8.01814436	      0.61544397	     10.23511932	     10.97984930	     -8.07502024	    -25.14984541	     -1.65213200	     -3.08659339	     53.88198890	     -5.19598795	      0.94041811	     -8.49497530	      6.65407320	     -8.07502024	    -40.84895167	      4.87288530	      2.48170135	     -2.37801939	    -16.57738671	    -12.93246797	     59.10702870	     90.00000001	      0.00000000	      0.00000000	      3.38885786	    -18.88102482	      1.71786051	     69.76989682	     90.00000001	      0.00000000	      0.00000000
      0.64000000	     20.84571283	      2.32750704	      6.18826932	     -0.41632463	      0.97716269	     -0.13430668	      3.44918411	      0.03296387	    -24.39417184	     34.89440898	     -8.23409082	      0.60902233	     11.33916020	     12.48560313	     -8.03422476	    -23.43632536	     -1.46881862	     -2.33577596	     56.64547729	     -5.13335014	      0.98865009	     -8.28847686	      4.74892941	     -8.03422476	    -41.06309793	      4.77535880	      2.81762823	     -2.02608222	    -16.67215987	    -12.71656970	     59.31176369	     90.00000001	      0.00000000	      0.00000000	      2.99483818	    -18.70483837	      1.58625871	     69.08414287	     90.00000001	      0.00000000	      0.00000000
      0.65000000	     20.94251234	      2.24444922	      5.97865350	     -0.40281728	      0.97979575	     -0.13285483	      2.15026621	      0.29788374	    -24.42615164	     34.33969599	     -8.08056693	      0.59934076	     12.09330695	     13.00869158	     -8.02260844	    -21.70318054	     -1.36991423	     -2.30551167	     59.03860455	     -5.48791435	      1.03041804	     -7.55033707	      3.79865187	     -8.02260844	    -41.32525697	      4.69134964	      3.22246874	     -1.66335333	    -16.79533400	    -12.47717381	     59.59990401	     90.00000001	      0.00000000	      0.00000000	      2.66189017	    -18.53073221	      1.50668669	     68.31198916	     90.00000001	      0.00000000	      0.00000000
      0.66000000	     20.93913202	      2.16677989	      5.77163874	     -0.38950184	      0.98231837	     -0.13127286	      0.99772471	      0.56028736	    -24.71111674	     33.73449149	     -8.14360294	      0.58877795	     12.72087543	     14.04552215	     -8.00350890	    -19.82791153	     -1.30102161	     -2.10234408	     61.13335770	     -5.53953017	      1.06697837	     -6.69904629	      2.45981853	     -8.00350890	    -41.50485258	      4.56217442	      3.59984537	     -1.30005415	    -16.91173694	    -12.16232735	     59.90856476	     90.00000001	      0.00000000	      0.00000000	      2.36669104	    -18.38031919	      1.41983399	     67.47807608	     90.00000001	      0.00000000	      0.00000000
      0.67000000	     21.03830343	      2.19569959	      5.51311071	     -0.37632118	      0.98510446	     -0.12972355	     -0.34164637	      0.69467197	    -24.66674444	     33.05469232	     -7.97994475	      0.57691321	     13.31844395	     14.72690300	     -7.98827455	    -18.11010450	     -1.08297209	     -2.21827941	     62.68810472	     -5.81906468	      1.09411383	     -5.66810307	      1.56209140	     -7.98827455	    -41.79734388	      4.31007982	      3.91781330	     -0.93335390	    -17.02247916	    -11.85832164	     60.28001784	     90.00000001	      0.00000000	      0.00000000	      2.10370816	    -18.27510106	      1.37225759	     66.60445515	     90.00000001	      0.00000000	      0.00000000
      0.68000000	     21.12279144	      2.31653602	      5.24628884	     -0.36332584	      0.98790922	     -0.12822725	     -1.70890551	      0.71058253	    -24.44257554	     32.30805375	     -7.67768023	      0.56388191	     13.75403071	     15.10110718	     -7.97983857	    -16.38762524	     -0.74537009	     -2.48170403	     63.78808266	     -6.20339578	      1.11331207	     -4.59942285	      1.00058167	     -7.97983857	    -42.09500487	      3.96207148	      4.13290340	     -0.52931848	    -17.09089660	    -11.59099248	     60.68029419	     90.00000001	      0.00000000	      0.00000000	      1.84838798	    -18.20469401	      1.35738928	     65.73964098	     90.00000001	      0.00000000	      0.00000000
      0.69000000	     21.16020159	      2.31284838	      4.92689546	     -0.35040793	      0.99052380	     -0.12654548	     -2.99592540	      0.89295522	    -24.25048937	     31.49832137	     -7.48826796	      0.54974942	     14.19559754	     15.64195045	     -7.97033407	    -14.62150657	     -0.57876643	     -2.88500437	     64.54127641	     -6.48914163	      1.12645778	     -3.35063575	      0.43511194	     -7.97033407	    -42.32366777	      3.67455694	      4.46363562	     -0.17920204	    -17.23394391	    -11.20803900	     61.14723730	     90.00000001	      0.00000000	      0.00000000	      1.63870989	    -18.09270644	      1.31760875	     64.75744488	     90.00000001	      0.00000000	      0.00000000
      0.70000000	     21.16310861	      2.30154301	      4.57569387	     -0.33762939	      0.99296466	     -0.12476621	     -4.23666384	      1.11005581	    -24.13040661	     30.61264357	     -7.42926498	      0.53429142	     14.57321484	     16.33030408	     -7.95949966	    -12.83886084	     -0.41249290	     -3.37303269	     64.90541865	     -6.78796899	      1.13281326	     -2.12508665	      0.10489090	     -7.95949966	    -42.52999354	      3.35996166	      4.78076625	      0.16443219	    -17.38199581	    -10.78904581	     61.68458895	     90.00000001	      0.00000000	      0.00000000	      1.43977246	    -18.00200298	      1.27175498	     63.76919294	     90.00000001	      0.00000000	      0.00000000
      0.71000000	     21.04151173	      2.42640236	      4.23345807	     -0.32504387	      0.99511657	     -0.12305866	     -5.33640040	      1.16020357	    -24.05073685	     29.72366725	     -7.39156002	      0.51877586	     14.84786074	     16.66430093	     -7.95294173	    -10.94862409	     -0.05664954	     -3.74298001	     64.89192063	     -7.00967304	      1.13257767	     -1.16873268	     -0.08726032	     -7.95294173	    -42.61283659	      2.90456842	      4.93977378	      0.56007688	    -17.41000322	    -10.48556469	     62.21910669	     90.00000001	      0.00000000	      0.00000000	      1.16384271	    -18.01171587	      1.24642424	     62.94341086	     90.00000001	      0.00000000	      0.00000000
      0.72000000	     20.90098014	      2.46188413	      3.87509281	     -0.31244648	      0.99703660	     -0.12130284	     -6.43333276	      1.31202381	    -24.02007169	     28.75407990	     -7.37749487	      0.50185337	     15.16848536	     17.19045916	     -7.94648225	     -9.08101894	      0.18967422	     -4.19482276	     64.56210491	     -7.21922232	      1.12682130	     -0.03675307	     -0.31398004	     -7.94648225	    -42.65755747	      2.52159215	      5.14005455	      0.87598024	    -17.50365264	    -10.07873950	     62.78761563	     90.00000001	      0.00000000	      0.00000000	      0.92191374	    -17.97129687	      1.19052844	     61.95325194	     90.00000001	      0.00000000	      0.00000000
      0.73000000	     21.11741365	      2.27464910	      3.45619412	     -0.29944428	      0.99917931	     -0.11955069	     -7.95631498	      1.63157622	    -24.88292026	     27.57781625	     -7.66667379	      0.48132369	     15.65565850	     20.17073593	     -7.92308606	     -7.74537841	      0.10702691	     -5.27358982	     63.72964417	     -7.81048462	      1.11229212	      1.41819811	      0.51746795	     -7.92308606	    -42.99996140	      2.35946779	      5.53740961	      1.08901615	    -17.83145870	     -9.42834099	     63.57105767	     90.00000001	      0.00000000	      0.00000000	      0.67689260	    -17.81232185	      1.08682578	     60.93802072	     90.00000001	      0.00000000	      0.00000000
      0.74000000	     20.87746351	      2.30063599	      3.08588023	     -0.28708492	      1.00050090	     -0.11791567	     -8.91236432	      1.75873709	    -24.96293910	     26.63061764	     -7.70311047	      0.46479196	     16.00344495	     20.58531318	     -7.91614180	     -5.86425181	      0.38990755	     -5.46866896	     62.83194779	     -7.78613143	      1.09662436	      2.40211373	      0.22618617	     -7.91614180	    -42.94399842	      1.99023777	      5.69071573	      1.45494153	    -17.94093405	     -9.03628504	     64.14582507	     90.00000001	      0.00000000	      0.00000000	      0.44842472	    -17.75999026	      1.02239339	     59.94663389	     90.00000001	      0.00000000	      0.00000000
